<svg xmlns="http://www.w3.org/2000/svg" width="64" height="64" viewBox="0 0 64 64" version="1.1"><path d="M 45 2.895 C 41.514 3.865, 41.711 6.554, 45.250 6.312 C 46.763 6.208, 48 6.546, 48 7.062 C 48 7.578, 47.550 8, 47 8 C 46.450 8, 46 8.426, 46 8.946 C 46 10.237, 54.767 9.633, 56.153 8.247 C 57.405 6.995, 56.614 4, 55.031 4 C 54.464 4, 54.113 4.338, 54.250 4.750 C 54.388 5.162, 54.050 5.500, 53.500 5.500 C 52.950 5.500, 52.631 5.107, 52.791 4.627 C 52.951 4.147, 52.426 4.006, 51.624 4.314 C 50.822 4.622, 49.917 4.227, 49.614 3.437 C 49.017 1.881, 48.754 1.851, 45 2.895 M 21 5.175 C 12.790 7.508, 8.219 14.138, 9.294 22.155 C 10.053 27.817, 12.550 30.982, 18.110 33.331 C 22.308 35.105, 23 35.793, 23 38.198 C 23 40.293, 23.484 41, 24.917 41 C 25.971 41, 27.062 40.438, 27.341 39.750 C 27.722 38.809, 28.114 38.871, 28.924 40 C 29.880 41.333, 30.111 41.333, 31 40 C 31.889 38.667, 32.111 38.667, 33 40 C 33.889 41.333, 34.120 41.333, 35.076 40 C 35.886 38.871, 36.278 38.809, 36.659 39.750 C 36.938 40.438, 38.029 41, 39.083 41 C 40.516 41, 41 40.293, 41 38.201 C 41 35.878, 41.633 35.173, 44.722 34.056 C 46.769 33.316, 50.087 31.050, 52.096 29.021 C 55.238 25.848, 55.705 24.787, 55.438 21.423 C 55.061 16.679, 50.781 12.512, 47.880 14.064 C 45.180 15.509, 44 15.186, 44 13 C 44 11.900, 43.354 11, 42.565 11 C 41.775 11, 40.560 9.425, 39.864 7.500 C 38.947 4.965, 38 4, 36.430 4 C 34.025 4, 33.177 6.995, 33.386 14.750 C 33.461 17.544, 33.072 19, 32.250 19 C 30.848 19, 30.880 19.111, 30.595 13.189 C 30.481 10.818, 30.751 8.654, 31.194 8.380 C 31.637 8.106, 32 7.009, 32 5.941 C 32 4.349, 31.326 4.016, 28.250 4.090 C 26.188 4.140, 22.925 4.628, 21 5.175 M 17 25.826 C 17 28.404, 21.159 32, 24.140 32 C 26.949 32, 31 28.271, 31 25.686 C 31 24.265, 29.898 24, 24 24 C 17.889 24, 17 24.232, 17 25.826 M 33 25.826 C 33 28.404, 37.159 32, 40.140 32 C 42.949 32, 47 28.271, 47 25.686 C 47 24.265, 45.898 24, 40 24 C 33.889 24, 33 24.232, 33 25.826 M 29.709 31.624 C 28.313 33.020, 29.048 33.667, 32.028 33.667 C 33.754 33.667, 34.902 33.201, 34.699 32.583 C 34.276 31.296, 30.720 30.613, 29.709 31.624 M 23 43.929 C 23 46.407, 26.379 48, 31.637 48 C 37.653 48, 41 46.736, 41 44.465 C 41 42.682, 37.369 42.502, 36.659 44.250 C 36.278 45.191, 35.886 45.129, 35.076 44 C 34.120 42.667, 33.889 42.667, 33 44 C 32.111 45.333, 31.889 45.333, 31 44 C 30.111 42.667, 29.880 42.667, 28.924 44 C 28.114 45.129, 27.722 45.191, 27.341 44.250 C 26.757 42.811, 23 42.533, 23 43.929 M 49 44.500 C 49 44.775, 49.225 45, 49.500 45 C 49.775 45, 50 44.775, 50 44.500 C 50 44.225, 49.775 44, 49.500 44 C 49.225 44, 49 44.225, 49 44.500 M 48 47 C 48 47.550, 48.450 48, 49 48 C 49.550 48, 50 47.550, 50 47 C 50 46.450, 49.550 46, 49 46 C 48.450 46, 48 46.450, 48 47" stroke="none" fill="#50ccc6" fill-rule="evenodd"/><path d="M 43 1 C 41.625 1.440, 36.619 1.845, 31.876 1.900 C 14.993 2.095, 7 7.911, 7 20 C 7 25.950, 8.709 29.736, 13.041 33.381 C 14.753 34.821, 15.702 36, 15.150 36 C 12.888 36, 11.074 42.521, 10.408 53.053 C 9.715 64, 9.715 64, 32 64 C 54.285 64, 54.285 64, 53.578 52.825 C 52.916 42.375, 51.217 36, 49.092 36 C 48.621 36, 49.982 34.253, 52.118 32.118 C 55.779 28.456, 57.012 26, 55.188 26 C 54.741 26, 53.420 27.294, 52.250 28.875 C 51.081 30.456, 48.073 32.594, 45.566 33.625 C 41.716 35.208, 41.007 35.928, 41.004 38.250 C 41.001 40.292, 40.507 41, 39.083 41 C 38.029 41, 36.938 40.438, 36.659 39.750 C 36.278 38.809, 35.886 38.871, 35.076 40 C 34.120 41.333, 33.889 41.333, 33 40 C 32.111 38.667, 31.889 38.667, 31 40 C 30.111 41.333, 29.880 41.333, 28.924 40 C 28.114 38.871, 27.722 38.809, 27.341 39.750 C 27.062 40.438, 25.971 41, 24.917 41 C 23.484 41, 23 40.293, 23 38.198 C 23 35.793, 22.308 35.105, 18.110 33.331 C 11.680 30.615, 9.500 27.205, 9.500 19.867 C 9.500 10.589, 15.070 5.467, 26.438 4.294 C 31.589 3.763, 32 3.874, 32 5.801 C 32 6.946, 31.637 8.106, 31.194 8.380 C 30.751 8.654, 30.481 10.818, 30.595 13.189 C 30.880 19.111, 30.848 19, 32.250 19 C 33.072 19, 33.461 17.544, 33.386 14.750 C 33.177 6.995, 34.025 4, 36.430 4 C 38 4, 38.947 4.965, 39.864 7.500 C 40.560 9.425, 41.775 11, 42.565 11 C 43.354 11, 44 11.900, 44 13 C 44 15.130, 45.579 15.552, 47.945 14.055 C 49.677 12.959, 55 16.364, 55 18.568 C 55 19.356, 55.509 20, 56.132 20 C 56.873 20, 57.080 18.633, 56.732 16.039 C 56.368 13.326, 56.642 11.712, 57.600 10.917 C 59.315 9.494, 59.435 4.835, 57.800 3.200 C 57.140 2.540, 55.340 2, 53.800 2 C 52.260 2, 51 1.550, 51 1 C 51 -0.161, 46.624 -0.161, 43 1 M 45 2.895 C 41.514 3.865, 41.711 6.554, 45.250 6.312 C 46.763 6.208, 48 6.546, 48 7.062 C 48 7.578, 47.550 8, 47 8 C 46.450 8, 46 8.426, 46 8.946 C 46 10.237, 54.767 9.633, 56.153 8.247 C 57.405 6.995, 56.614 4, 55.031 4 C 54.464 4, 54.113 4.338, 54.250 4.750 C 54.388 5.162, 54.050 5.500, 53.500 5.500 C 52.950 5.500, 52.631 5.107, 52.791 4.627 C 52.951 4.147, 52.426 4.006, 51.624 4.314 C 50.822 4.622, 49.917 4.227, 49.614 3.437 C 49.017 1.881, 48.754 1.851, 45 2.895 M 55 23 C 55 23.550, 55.450 24, 56 24 C 56.550 24, 57 23.550, 57 23 C 57 22.450, 56.550 22, 56 22 C 55.450 22, 55 22.450, 55 23 M 17 25.826 C 17 28.404, 21.159 32, 24.140 32 C 26.949 32, 31 28.271, 31 25.686 C 31 24.265, 29.898 24, 24 24 C 17.889 24, 17 24.232, 17 25.826 M 33 25.826 C 33 28.404, 37.159 32, 40.140 32 C 42.949 32, 47 28.271, 47 25.686 C 47 24.265, 45.898 24, 40 24 C 33.889 24, 33 24.232, 33 25.826 M 29.709 31.624 C 28.313 33.020, 29.048 33.667, 32.028 33.667 C 33.754 33.667, 34.902 33.201, 34.699 32.583 C 34.276 31.296, 30.720 30.613, 29.709 31.624 M 23 43.929 C 23 46.407, 26.379 48, 31.637 48 C 37.653 48, 41 46.736, 41 44.465 C 41 42.682, 37.369 42.502, 36.659 44.250 C 36.278 45.191, 35.886 45.129, 35.076 44 C 34.120 42.667, 33.889 42.667, 33 44 C 32.111 45.333, 31.889 45.333, 31 44 C 30.111 42.667, 29.880 42.667, 28.924 44 C 28.114 45.129, 27.722 45.191, 27.341 44.250 C 26.757 42.811, 23 42.533, 23 43.929 M 49 44.500 C 49 44.775, 49.225 45, 49.500 45 C 49.775 45, 50 44.775, 50 44.500 C 50 44.225, 49.775 44, 49.500 44 C 49.225 44, 49 44.225, 49 44.500 M 48 47 C 48 47.550, 48.450 48, 49 48 C 49.550 48, 50 47.550, 50 47 C 50 46.450, 49.550 46, 49 46 C 48.450 46, 48 46.450, 48 47" stroke="none" fill="#2c1048" fill-rule="evenodd"/></svg>